<?xml version="1.0" encoding="UTF-8" standalone="no"?><svg xmlns="http://www.w3.org/2000/svg" xmlns:xlink="http://www.w3.org/1999/xlink" fill="#000000" height="1500" preserveAspectRatio="xMidYMid meet" version="1" viewBox="-35.9 0.0 1393.0 1500.0" width="1393" zoomAndPan="magnify"><g id="change1_1"><path d="M1070.384,790.16c-26.47-15.282-53.02-28.649-79.218-40.159c26.198-11.511,52.748-24.877,79.218-40.16 c179.359-103.553,286.674-253.467,239.693-334.84c-46.981-81.373-230.466-63.393-409.826,40.16 c-26.457,15.275-51.297,31.577-74.355,48.5c3.127-28.428,4.796-58.113,4.796-88.66c0-207.107-76.171-375-170.133-375 S490.424,167.893,490.424,375c0,30.548,1.669,60.232,4.796,88.66c-23.058-16.923-47.898-33.225-74.355-48.5 C241.505,311.607,58.02,293.627,11.038,375c-46.981,81.373,60.333,231.286,239.693,334.84c26.47,15.283,53.02,28.649,79.218,40.16 c-26.198,11.51-52.748,24.877-79.218,40.159C71.372,893.714-35.943,1043.626,11.038,1125.001 c46.981,81.373,230.466,63.393,409.826-40.16c26.457-15.275,51.297-31.577,74.355-48.501c-3.127,28.429-4.796,58.114-4.796,88.661 c0,207.106,76.172,374.999,170.133,374.999s170.133-167.893,170.133-374.999c0-30.548-1.669-60.232-4.796-88.661 c23.058,16.924,47.898,33.226,74.355,48.501c179.36,103.553,362.845,121.534,409.826,40.16 C1357.057,1043.626,1249.743,893.714,1070.384,790.16z" fill="#896fd6"/></g></svg>